<?xml version="1.0" encoding="UTF-8"?>
<svg width="190.5mm" height="186.8mm" version="1.1" viewBox="0 0 190.5 186.8" xmlns="http://www.w3.org/2000/svg" xmlns:cc="http://creativecommons.org/ns#" xmlns:dc="http://purl.org/dc/elements/1.1/" xmlns:ns4="http://www.iki.fi/pav/software/textext/" xmlns:rdf="http://www.w3.org/1999/02/22-rdf-syntax-ns#">
 <defs></defs>
 <metadata>
  <rdf:RDF>
   <cc:Work rdf:about="">
    <dc:format>image/svg+xml</dc:format>
    <dc:type rdf:resource="http://purl.org/dc/dcmitype/StillImage"/>
    <dc:title/>
   </cc:Work>
  </rdf:RDF>
 </metadata>
 <g>
  <flowRoot transform="scale(.2646)" fill="#000000" font-family="'Bodoni MT'" font-size="26.67px" letter-spacing="0px" text-align="center" text-anchor="middle" word-spacing="0px" style="font-feature-settings:normal;font-variant-caps:normal;font-variant-ligatures:normal;font-variant-numeric:normal;line-height:1.25" xml:space="preserve"><flowRegion><rect x="198" y="412.4" width="325.3" height="233.3"/></flowRegion><flowPara font-family="Forte"/><flowPara font-family="Forte"/><flowPara font-family="Forte"/></flowRoot>
  <g transform="translate(-12.04 -57.65)">
   <ellipse cx="107.3" cy="150.9" rx="95.15" ry="93.27" fill="#383e56" style="paint-order:stroke fill markers"/>
   <g transform="matrix(5.084 0 0 5.122 -284.4 -722.1)" fill="#eedad1" stroke="#383e56" stroke-width=".2513">
    <g fill="#eedad1" stroke="#383e56" stroke-width=".2513">
     <g transform="matrix(.8518 0 0 .8646 38.89 25.77)" fill="#eedad1" stroke="#383e56" stroke-width=".2928">
      <path d="m31.72 155.7c-0.8704-0.0445 0.9615-1.809 1.168-1.634 0.4686-0.1888 1.567-0.3136 1.495-0.7049-0.03035-0.1644-0.6976-0.2194-1.71-0.1224-1.802 0.4538-3.475 3.023-3.041 3.146"/>
      <path d="m35.58 154c-0.06955-0.1598 1.007-1.249 2.997-0.9925 0.3825 0.0494 0.7101-0.4579 0.2399-0.744-0.5803-0.3531-0.9665-0.2789-1.839-0.3217-1.948 0.2916-2.906 0.835-3.172 1.175 0 0-0.6018 0.4832-0.6818 1.56"/>
      <path d="m29.89 170.4s3.351 1.268 7.552-0.3778c0 0 2.243-0.745 3.834-2.564 0 0 3.186-3.65 3.268-6.272 0 0 0.08764-0.4807-0.3282-1.445 0 0 1.829 0.3424 3.5-1.487 0 0 0.8853-0.7517 0.877-1.846 0 0-0.1921-1.42-2.606-1.879 0 0-1.094-0.76-2.531-0.7517-1.437 8e-3 -2.38 0.4176-2.38 0.4176s-0.7183-0.4594-3.09-0.4594-4.861 1.027-4.861 1.027-3.441 0.735-5.128 2.99c0 0-1.554 1.453-2.339 4.577-0.7851 3.124 1.009 7.018 4.233 8.07"/>
      <path d="m41.31 159.5s1.087 2.551 7.276 2.126c2.341-0.1608 3.058 9e-3 2.879 0.2891-0.2847 0.4444-3.252 0.6778-3.252 0.6778s-5.307 1.023-6.748-1.008"/>
      <path d="m39.98 162s0.4497 0.9251 2.632 1.583c0.9597 0.2893 2.23 0.5488 4.143 0.8272 2.548 0.2832 2.776-0.3262 2.545 0.2222-0.2045 0.4866-2.233 0.7613-2.233 0.7613-1.516 0.0113-5.497 0.2011-7.726-1.281"/>
      <path d="m37.45 165.7c1.315-0.3738 3.424 3.299 2.381 5.051-1.023 1.717-1.055 0.3457-1.055 0.3457 0.1563-0.4068 1.057-3.213-2.752-4.238"/>
      <path d="m35 166.9c2.895 1.502 2.647 1.028 4.206 3.19 0.4845 1.067 0.4509 3.237 0.269 3.402-1.039 0.9454-0.9171-2.486-2.364-3.609-1.715-0.4527-1.892-0.4245-4.214-0.5795"/>
     </g>
    </g>
   </g>
   <g transform="matrix(6.878 0 0 6.474 31.52 125.2)" fill="#f69e7b" stroke="#f69e7b" stroke-width=".3459" ns4:alignment="middle center" ns4:inkscapeversion="1.0.1" ns4:jacobian_sqrt="0.352778" ns4:pdfconverter="inkscape" ns4:preamble="C:\Users\jose2\AppData\Roaming\inkscape\extensions\textext\default_packages.tex" ns4:scale="1.0" ns4:texconverter="pdflatex" ns4:text="$\\text{Myte}$" ns4:version="1.3.0">
    <defs></defs>
    <g transform="translate(-149.1 -128)" fill="#f69e7b" stroke="#f69e7b" stroke-width=".3459">
     <g id="id-8afca1a1-aa42-4ce0-a0a8-3db182f8ae6a" fill="#f69e7b" stroke="#f69e7b" stroke-width=".3459">
      <g transform="translate(148.7 134.8)">
       <path d="m2.406-6.594c-0.09375-0.2188-0.125-0.2188-0.3594-0.2188h-1.672v0.3125h0.2344c0.7656 0 0.7812 0.1094 0.7812 0.4688v4.984c0 0.2656 0 0.7344-1.016 0.7344v0.3125c0.3438-0.01562 0.8281-0.03125 1.156-0.03125s0.8281 0.01562 1.172 0.03125v-0.3125c-1.031 0-1.031-0.4688-1.031-0.7344v-5.375h0.01562l2.406 6.203c0.04688 0.125 0.09375 0.2188 0.1875 0.2188 0.1094 0 0.1406-0.07812 0.1875-0.1875l2.453-6.312v5.719c0 0.3594-0.01562 0.4688-0.7812 0.4688h-0.2344v0.3125c0.3594-0.03125 1.047-0.03125 1.438-0.03125 0.375 0 1.047 0 1.422 0.03125v-0.3125h-0.25c-0.7656 0-0.7812-0.1094-0.7812-0.4688v-5.25c0-0.3594 0.01562-0.4688 0.7812-0.4688h0.25v-0.3125h-1.688c-0.2656 0-0.2656 0.01562-0.3281 0.1875l-2.188 5.625z" fill="#f69e7b" stroke="#f69e7b" stroke-width=".3459"/>
      </g>
      <g transform="translate(157.8 134.8)">
       <path id="id-733e21f0-252b-4b1f-9fcb-e7f0086a732f" d="m4.141-3.344c0.25-0.6406 0.7656-0.6406 0.9219-0.6406v-0.3125c-0.2344 0.01562-0.5156 0.03125-0.75 0.03125-0.1719 0-0.6406-0.01562-0.8594-0.03125v0.3125c0.3125 0 0.4688 0.1719 0.4688 0.4219 0 0.1094-0.01562 0.125-0.0625 0.25l-1.016 2.438-1.094-2.672c-0.04688-0.1094-0.0625-0.1406-0.0625-0.1875 0-0.25 0.3594-0.25 0.5625-0.25v-0.3125c-0.2656 0.01562-0.9219 0.03125-1.094 0.03125-0.2656 0-0.6719-0.01562-0.9688-0.03125v0.3125c0.4844 0 0.6719 0 0.8125 0.3438l1.5 3.641c-0.0625 0.125-0.2031 0.4531-0.25 0.5938-0.2188 0.5469-0.5 1.234-1.141 1.234-0.04688 0-0.2812 0-0.4688-0.1875 0.3125-0.03125 0.3906-0.25 0.3906-0.4219 0-0.25-0.1875-0.4062-0.4219-0.4062-0.2031 0-0.4219 0.125-0.4219 0.4219 0 0.4531 0.4219 0.8125 0.9219 0.8125 0.625 0 1.031-0.5781 1.266-1.141z" fill="#f69e7b" stroke="#f69e7b" stroke-width=".3459"/>
      </g>
      <g transform="translate(163.1 134.8)">
       <path id="id-f8cd211f-d7b8-4287-823e-1ba69276d48b" d="m1.719-3.984h1.438v-0.3125h-1.438v-1.828h-0.25c0 0.8125-0.2969 1.875-1.281 1.922v0.2188h0.8438v2.75c0 1.219 0.9375 1.344 1.297 1.344 0.7031 0 0.9844-0.7031 0.9844-1.344v-0.5625h-0.25v0.5469c0 0.7344-0.2969 1.109-0.6719 1.109-0.6719 0-0.6719-0.9062-0.6719-1.078z" fill="#f69e7b" stroke="#f69e7b" stroke-width=".3459"/>
      </g>
      <g transform="translate(167 134.8)">
       <path d="m1.109-2.516c0.0625-1.484 0.9062-1.734 1.25-1.734 1.016 0 1.125 1.344 1.125 1.734zm0 0.2188h2.781c0.2188 0 0.25 0 0.25-0.2188 0-0.9844-0.5469-1.953-1.781-1.953-1.156 0-2.078 1.031-2.078 2.281 0 1.328 1.047 2.297 2.188 2.297 1.219 0 1.672-1.109 1.672-1.297 0-0.09375-0.07812-0.125-0.1406-0.125-0.07812 0-0.1094 0.0625-0.125 0.1406-0.3438 1.031-1.25 1.031-1.344 1.031-0.5 0-0.8906-0.2969-1.125-0.6719-0.2969-0.4688-0.2969-1.125-0.2969-1.484z" fill="#f69e7b" stroke="#f69e7b" stroke-width=".3459"/>
      </g>
     </g>
    </g>
   </g>
  </g>
 </g>
</svg>
